<svg aria-hidden="true" style="position:absolute;width:0;height:0;overflow:hidden" xmlns="http://www.w3.org/2000/svg"><defs><symbol id="icon-arrow-down-circle" viewBox="0 0 24 24"><path d="M23 12c0-3.037-1.232-5.789-3.222-7.778S15.037 1 12 1 6.211 2.232 4.222 4.222 1 8.963 1 12s1.232 5.789 3.222 7.778S8.963 23 12 23s5.789-1.232 7.778-3.222S23 15.037 23 12zm-2 0c0 2.486-1.006 4.734-2.636 6.364S14.486 21 12 21s-4.734-1.006-6.364-2.636S3 14.486 3 12s1.006-4.734 2.636-6.364S9.514 3 12 3s4.734 1.006 6.364 2.636S21 9.514 21 12zM11 8v5.586l-2.293-2.293c-.391-.391-1.024-.391-1.414 0s-.391 1.024 0 1.414l4 4c.092.092.202.166.324.217.245.101.521.101.766 0 .118-.049.228-.121.324-.217l4-4c.391-.391.391-1.024 0-1.414s-1.024-.391-1.414 0L13 13.586V8c0-.552-.448-1-1-1s-1 .448-1 1z"/></symbol><symbol id="icon-eye" viewBox="0 0 24 24"><path d="M.106 11.553c-.136.274-.146.603 0 .894 0 0 .396.789 1.12 1.843.451.656 1.038 1.432 1.757 2.218.894.979 2.004 1.987 3.319 2.8C7.897 20.294 9.808 21 12 21s4.103-.706 5.698-1.692c1.315-.813 2.425-1.821 3.319-2.8.718-.786 1.306-1.562 1.757-2.218.724-1.054 1.12-1.843 1.12-1.843.136-.274.146-.603 0-.894 0 0-.396-.789-1.12-1.843-.451-.656-1.038-1.432-1.757-2.218-.894-.979-2.004-1.987-3.319-2.8C16.103 3.706 14.192 3 12 3s-4.103.706-5.698 1.692c-1.315.813-2.425 1.821-3.319 2.8-.719.786-1.306 1.561-1.757 2.218-.724 1.054-1.12 1.843-1.12 1.843zM2.14 12c.163-.281.407-.681.734-1.158.41-.596.94-1.296 1.585-2.001.805-.881 1.775-1.756 2.894-2.448C8.703 5.559 10.254 5 12 5s3.297.559 4.646 1.393c1.119.692 2.089 1.567 2.894 2.448.644.705 1.175 1.405 1.585 2.001.328.477.572.876.734 1.158-.163.281-.407.681-.734 1.158-.41.596-.94 1.296-1.585 2.001-.805.881-1.775 1.756-2.894 2.448C15.297 18.441 13.746 19 12 19s-3.297-.559-4.646-1.393c-1.119-.692-2.089-1.567-2.894-2.448-.644-.705-1.175-1.405-1.585-2.001-.328-.477-.572-.877-.735-1.158zM16 12c0-1.104-.449-2.106-1.172-2.828S13.104 8 12 8s-2.106.449-2.828 1.172S8 10.896 8 12s.449 2.106 1.172 2.828S10.896 16 12 16s2.106-.449 2.828-1.172S16 13.104 16 12zm-2 0c0 .553-.223 1.051-.586 1.414S12.553 14 12 14s-1.051-.223-1.414-.586S10 12.553 10 12s.223-1.051.586-1.414S11.447 10 12 10s1.051.223 1.414.586S14 11.447 14 12z"/></symbol><symbol id="icon-heart" viewBox="0 0 24 24"><path d="M20.133 5.317c.88.881 1.319 2.031 1.319 3.184s-.44 2.303-1.319 3.182L12 19.816l-8.133-8.133c-.879-.879-1.318-2.029-1.318-3.183s.439-2.304 1.318-3.183S5.896 3.999 7.05 3.999s2.304.439 3.183 1.318l1.06 1.06c.391.391 1.024.391 1.414 0l1.062-1.062c.879-.879 2.029-1.318 3.182-1.317s2.303.44 3.182 1.319zm1.414-1.414c-1.269-1.269-2.934-1.904-4.596-1.905s-3.327.634-4.597 1.903L12 4.256l-.353-.353C10.378 2.634 8.712 1.999 7.05 1.999s-3.328.635-4.597 1.904S.549 6.838.549 8.5s.635 3.328 1.904 4.597l8.84 8.84c.391.391 1.024.391 1.414 0l8.84-8.84c1.269-1.269 1.904-2.934 1.905-4.596s-.634-3.327-1.905-4.598z"/></symbol><symbol id="icon-message-square" viewBox="0 0 24 24"><path d="M22 15V5c0-.828-.337-1.58-.879-2.121S19.828 2 19 2H5c-.828 0-1.58.337-2.121.879S2 4.172 2 5v16c0 .256.098.512.293.707.391.391 1.024.391 1.414 0L7.414 18H19c.828 0 1.58-.337 2.121-.879S22 15.828 22 15zm-2 0c0 .276-.111.525-.293.707S19.276 16 19 16H7c-.276 0-.526.112-.707.293L4 18.586V5c0-.276.111-.525.293-.707S4.724 4 5 4h14c.276 0 .525.111.707.293S20 4.724 20 5z"/></symbol></defs></svg>